:SAMPLES-PER-SECOND 30
:FULLY-SPECIFIED
:DEGREES
83
root  -13.9206 38.5593 -10.2567 158.813 -72.3948 -166.498
RightUpLeg  -11.1311 -8.9584 1.93319
RightLeg  33.6488 2.15865 1.28153
RightFoot  -12.7256 -0.0919607 -0.446665
RightToes  5.82063e-011 0 -3.6325e-017
Spine  16.2456 -4.8358 8.05641
Spine1  5.86647 -6.80781 12.358
HEad  -28.0591 26.9985 -17.5644
LeftShoulder1  9.21619 -13.8065 -46.4455
LeftArm  8.56534 1.03151 -16.433
LeftForeArm  26.1737 -18.2725 -5.2969
LeftHand  -0.244104 0.0205437 5.32207
RightShoulder  1.91171 2.81993 24.0493
RightArm  -64.7421 -9.93732 17.336
RightForeArm  123.813 62.6149 156.576
RightHand  -9.63741 20.8074 -41.1185
LeftUpLeg  -25.3445 19.8762 3.36221
LeftLeg  58.0661 2.68763 5.21776
LeftFoot  -2.42853 0.232172 -2.78089
LeftToes  -1.33699e-010 -8.10125e-011 -3.35536e-011
84
root  -15.4496 38.7643 -10.1345 163.775 -70.1316 -170.706
RightUpLeg  -9.33138 -7.39822 0.116007
RightLeg  32.6932 3.09961 1.88415
RightFoot  -14.4272 -0.0967158 0.0545379
RightToes  5.82063e-011 0 -3.6325e-017
Spine  16.315 -4.77549 7.72213
Spine1  5.25052 -6.63648 11.3373
HEad  -30.0207 29.1818 -18.8781
LeftShoulder1  8.89495 -13.5409 -45.4959
LeftArm  4.40961 4.76056 -14.7768
LeftForeArm  28.7977 -15.8921 -6.11552
LeftHand  -0.244104 0.0205437 5.32207
RightShoulder  1.40609 1.54441 21.5139
RightArm  -69.1594 -8.44903 12.662
RightForeArm  136.74 58.1844 161.15
RightHand  -9.2824 20.9868 -39.4632
LeftUpLeg  -27.4837 22.3795 2.56643
LeftLeg  47.1545 2.77106 3.61658
LeftFoot  -1.94911 0.31466 -3.68027
LeftToes  -1.33699e-010 -8.10125e-011 -3.35536e-011
85
root  -16.9681 38.8758 -10.0189 167.675 -68.2561 -173.781
RightUpLeg  -7.90806 -5.80629 -1.7079
RightLeg  32.1043 3.5058 2.11579
RightFoot  -16.0708 -0.09013 0.444755
RightToes  5.82063e-011 0 -3.6325e-017
Spine  16.2894 -4.94286 6.9136
Spine1  4.54233 -6.83238 10.739
HEad  -31.8558 31.5558 -20.3503
LeftShoulder1  8.57123 -13.2555 -44.549
LeftArm  2.0406 9.29912 -13.4338
LeftForeArm  29.8315 -14.9783 -6.1243
LeftHand  -0.244104 0.0205437 5.32207
RightShoulder  0.929415 0.201198 18.5614
RightArm  -71.2717 -6.66101 8.49281
RightForeArm  142.678 54.2577 163.986
RightHand  -11.7397 24.6788 -43.2915
LeftUpLeg  -28.3661 24.9191 1.63324
LeftLeg  34.5103 2.73835 2.46818
LeftFoot  -1.1201 0.383536 -4.21944
LeftToes  -1.33699e-010 -8.10125e-011 -3.35536e-011
86
root  -18.5085 38.8701 -9.90294 170.263 -66.5398 -175.719
RightUpLeg  -6.60396 -4.18086 -3.38553
RightLeg  32.0342 3.71176 2.25049
RightFoot  -17.6737 -0.0516422 1.2246
RightToes  5.82063e-011 0 -3.6325e-017
Spine  16.2863 -5.23833 6.39581
Spine1  3.93636 -6.97125 9.76216
HEad  -33.3869 33.8055 -21.7363
LeftShoulder1  8.20269 -13.0312 -43.1396
LeftArm  2.35131 14.2706 -12.6617
LeftForeArm  28.5139 -15.3058 -5.8765
LeftHand  -0.244104 0.0205437 5.32207
RightShoulder  0.511695 -1.19138 15.3147
RightArm  -70.7274 -5.51963 4.45497
RightForeArm  143.328 51.5708 165.391
RightHand  -13.424 26.4523 -46.4495
LeftUpLeg  -27.8712 26.8714 1.31768
LeftLeg  21.5911 3.40274 1.48439
LeftFoot  -1.2286 0.395911 -4.37839
LeftToes  -1.33699e-010 -8.10125e-011 -3.35536e-011
87
root  -20.1048 38.7589 -9.78844 171.651 -64.9499 -176.681
RightUpLeg  -5.06636 -2.75544 -4.9198
RightLeg  32.1908 3.87798 2.37971
RightFoot  -19.4626 0.0235586 2.18901
RightToes  5.82063e-011 0 -3.6325e-017
Spine  16.1914 -5.50145 6.02368
Spine1  3.70112 -7.02543 8.71189
HEad  -35.0986 35.9475 -23.2542
LeftShoulder1  7.71404 -12.715 -41.2352
LeftArm  5.66949 19.5522 -12.428
LeftForeArm  25.9131 -17.0961 -5.32747
LeftHand  -0.244104 0.0205437 5.32207
RightShoulder  0.100487 -2.98338 11.4187
RightArm  -67.3864 -5.42182 1.03208
RightForeArm  150.05 50.0356 166.542
RightHand  -11.0091 23.4807 -42.2525
LeftUpLeg  -25.5659 23.0966 4.84864
LeftLeg  10.2836 10.8948 -1.00805
LeftFoot  -1.1065 0.372487 -4.04486
LeftToes  -1.33699e-010 -8.10125e-011 -3.35536e-011
88
root  -21.7911 38.5486 -9.67645 172.118 -64.161 -176.83
RightUpLeg  -3.04843 -2.2208 -6.4726
RightLeg  32.3323 4.04162 2.50664
RightFoot  -21.4674 0.150259 3.32958
RightToes  5.82063e-011 0 -3.6325e-017
Spine  15.9087 -5.8739 5.11606
Spine1  3.66281 -7.53597 8.83731
HEad  -37.5709 38.2001 -25.377
LeftShoulder1  7.16374 -12.1371 -39.5778
LeftArm  8.49322 25.8038 -12.4637
LeftForeArm  24.749 -20.9088 -4.18341
LeftHand  -0.244104 0.0205437 5.32207
RightShoulder  -0.261119 -5.26553 7.18814
RightArm  -61.6077 -4.81725 -1.1239
RightForeArm  160.735 48.484 167.913
RightHand  -8.54056 20.4968 -37.2767
LeftUpLeg  -22.4189 12.4259 11.8668
LeftLeg  1.45534 27.0542 -5.56154
LeftFoot  -0.938519 0.3744 -4.05839
LeftToes  -1.33699e-010 -8.10125e-011 -3.35536e-011
89
root  -23.5927 38.2491 -9.55455 171.709 -64.357 -176.117
RightUpLeg  -0.455439 -2.67228 -8.02022
RightLeg  32.2629 4.36115 2.71691
RightFoot  -23.3624 0.378646 5.09079
RightToes  5.82063e-011 0 -3.6325e-017
Spine  15.4516 -6.33286 3.92693
Spine1  3.33013 -8.43572 10.2018
HEad  -40.238 40.2341 -27.8477
LeftShoulder1  6.64645 -11.3392 -38.6029
LeftArm  3.84762 33.3135 -12.9089
LeftForeArm  28.4398 -26.3008 -4.02956
LeftHand  -0.244104 0.0205437 5.32207
RightShoulder  -0.433816 -7.15496 3.77767
RightArm  -54.6196 -3.21157 -3.08027
RightForeArm  164.867 47.011 168.759
RightHand  -11.6607 25.298 -42.1961
LeftUpLeg  -21.8304 13.2027 12.3605
LeftLeg  -3.08221 32.5837 -7.82491
LeftFoot  -1.29186 0.40776 -4.49724
LeftToes  -1.33699e-010 -8.10125e-011 -3.35536e-011
90
root  -25.4866 37.9021 -9.43396 170.322 -64.9681 -174.172
RightUpLeg  2.4467 -3.68118 -9.25766
RightLeg  31.7534 4.84619 2.98524
RightFoot  -24.708 0.703343 7.42898
RightToes  5.82063e-011 0 -3.6325e-017
Spine  14.7725 -6.39926 2.92945
Spine1  2.446 -8.90708 12.0099
HEad  -41.6355 41.4296 -29.6293
LeftShoulder1  6.01146 -10.2724 -37.4882
LeftArm  -6.00498 41.4281 -15.0392
LeftForeArm  32.6893 -33.0661 -5.45138
LeftHand  -0.244104 0.0205437 5.32207
RightShoulder  -0.481498 -8.64205 1.10517
RightArm  -47.1148 -2.00675 -4.90162
RightForeArm  170.363 46.6574 169.253
RightHand  -13.2976 27.6869 -44.0185
LeftUpLeg  -22.1455 14.6518 12.8775
LeftLeg  -2.85636 38.4891 -9.10148
LeftFoot  -0.364315 0.230014 -2.41132
LeftToes  -1.33699e-010 -8.10125e-011 -3.35536e-011
91
root  -27.4174 37.5368 -9.35841 167.637 -66.3007 -170.238
RightUpLeg  5.19798 -5.48176 -9.90459
RightLeg  31.0598 5.37224 3.24584
RightFoot  -25.0999 1.03291 9.95548
RightToes  5.82063e-011 0 -3.6325e-017
Spine  13.7171 -5.78278 1.41761
Spine1  0.686675 -8.76516 15.0453
HEad  -41.1768 41.4564 -29.9261
LeftShoulder1  5.06148 -8.67589 -35.4374
LeftArm  -15.2748 49.157 -19.5285
LeftForeArm  34.8545 -41.5842 -7.66963
LeftHand  -0.244104 0.0205437 5.32207
RightShoulder  -0.584188 -11.3097 -1.11199
RightArm  -41.2402 -0.92595 -3.77574
RightForeArm  -177.517 47.3039 169.829
RightHand  -7.45034 20.0784 -33.7991
LeftUpLeg  -25.9946 19.9326 10.9272
LeftLeg  3.83115 36.7495 -6.45304
LeftFoot  3.96444 -0.593001 3.95014
LeftToes  -1.33699e-010 -8.10125e-011 -3.35536e-011
92
root  -29.337 37.1396 -9.35687 162.359 -70.0363 -163.071
RightUpLeg  7.81263 -8.64766 -9.97817
RightLeg  31.0033 5.83397 3.5379
RightFoot  -24.1395 1.30673 13.0829
RightToes  5.82063e-011 0 -3.6325e-017
Spine  12.4069 -4.7657 -1.55721
Spine1  -2.57889 -8.40946 20.571
HEad  -39.3862 39.3208 -28.1937
LeftShoulder1  4.13069 -6.96078 -33.4195
LeftArm  -22.4439 54.9022 -24.5941
LeftForeArm  39.3055 -51.796 -11.2326
LeftHand  -0.244104 0.0205437 5.32207
RightShoulder  -0.896945 -14.3791 -0.421978
RightArm  -41.3574 1.46962 0.233892
RightForeArm  -172.869 48.2928 169.784
RightHand  -9.17329 22.1345 -36.0077
LeftUpLeg  -36.0355 32.2248 0.290203
LeftLeg  13.9266 17.4589 -0.190927
LeftFoot  10.179 -2.43843 12.458
LeftToes  -1.33699e-010 -8.10125e-011 -3.35536e-011
93
root  -31.1448 36.7891 -9.43071 147.285 -76.9403 -146.178
RightUpLeg  10.6415 -12.9739 -9.72466
RightLeg  31.7622 5.57005 3.46493
RightFoot  -21.2952 1.38461 17.5626
RightToes  5.82063e-011 0 -3.6325e-017
Spine  11.4727 -3.42063 -5.47958
Spine1  -7.08247 -7.29569 26.2503
HEad  -36.5763 32.5648 -23.8617
LeftShoulder1  3.97955 -6.58044 -33.3707
LeftArm  -26.77 55.3675 -27.1401
LeftForeArm  46.5682 -61.9129 -16.6558
LeftHand  -0.244104 0.0205437 5.32207
RightShoulder  -1.33476 -13.6815 5.51199
RightArm  -50.0624 3.58765 3.06109
RightForeArm  174.906 49.4748 168.509
RightHand  -18.7571 33.6338 -52.4527
LeftUpLeg  -44.4602 30.6673 -7.86567
LeftLeg  21.0706 4.52489 2.94961
LeftFoot  13.7164 -4.13651 18.1808
LeftToes  -1.33699e-010 -8.10125e-011 -3.35536e-011
94
root  -32.6758 36.6813 -9.57588 101.134 -82.7679 -98.6623
RightUpLeg  13.3769 -17.9605 -9.46922
RightLeg  32.5025 3.56827 2.19889
RightFoot  -16.37 0.887808 22.6591
RightToes  5.82063e-011 0 -3.6325e-017
Spine  11.3006 -1.13031 -8.10971
Spine1  -11.0698 -4.39254 26.6323
HEad  -32.9391 19.32 -17.4672
LeftShoulder1  4.8591 -8.1496 -35.5504
LeftArm  -27.1026 46.8458 -26.8053
LeftForeArm  51.8076 -68.1481 -22.2791
LeftHand  -0.244104 0.0205437 5.32207
RightShoulder  -1.05783 -8.5323 14.6325
RightArm  -68.5065 4.31251 4.07083
RightForeArm  156.497 51.0758 166.583
RightHand  -22.7975 35.9316 -58.2427
LeftUpLeg  -44.2268 18.476 -6.20951
LeftLeg  25.4667 5.1176 2.98213
LeftFoot  12.9751 -4.27484 19.267
LeftToes  -1.33699e-010 -8.10125e-011 -3.35536e-011
